<svg width="13" height="19" viewBox="0 0 13 19" fill="none" xmlns="http://www.w3.org/2000/svg">
<path d="M6.5 0C3.00786 0 0.166656 2.84121 0.166656 6.33335C0.166656 7.38169 0.42876 8.42112 0.927028 9.34306L6.15366 18.7959C6.22324 18.9219 6.35583 19 6.5 19C6.64417 19 6.77676 18.9219 6.84634 18.7959L12.0749 9.33995C12.5712 8.42112 12.8333 7.38165 12.8333 6.33331C12.8333 2.84121 9.99214 0 6.5 0ZM6.5 9.5C4.75393 9.5 3.33335 8.07942 3.33335 6.33335C3.33335 4.58728 4.75393 3.16669 6.5 3.16669C8.24607 3.16669 9.66666 4.58728 9.66666 6.33335C9.66666 8.07942 8.24607 9.5 6.5 9.5Z" fill="#DBC740"/>
</svg>
