<svg width="452" height="8" viewBox="0 0 452 8" fill="none" xmlns="http://www.w3.org/2000/svg">
<path d="M30.1791 4.80277C35.1022 4.53059 38.8486 4.24801 42.1446 3.99933C49.1593 3.4694 53.3837 3.14957 68.3647 3.0066C103.572 2.66663 130.045 3.76272 160.696 5.02897C179.189 5.79315 198.298 6.58351 220.404 7.08054C236.746 7.44837 253.285 7.63396 270.376 7.63396C298.136 7.63396 327.367 7.14431 359.582 6.15661C385.255 5.36894 413.47 4.23694 443.455 2.7908C452.134 2.3723 454.515 1.51952 448.783 0.88623C443.06 0.253274 431.398 0.079429 422.696 0.497261C394.651 1.85077 368.509 2.90155 345.001 3.62345C288.552 5.35451 254.71 4.97796 231.501 4.45508C213.298 4.04463 196.763 3.36134 179.244 2.63777C145.766 1.25338 111.189 -0.174962 63.4599 0.280794C35.4424 0.549615 23.6654 1.44032 15.0602 2.08972C12.3848 2.29209 10.0772 2.46728 7.48922 2.6089C-0.812613 3.06667 -2.46287 3.92851 3.79798 4.53462C10.068 5.13804 21.8542 5.25987 30.1791 4.80277Z" fill="#FBE550"/>
</svg>
