<svg width="307" height="8" viewBox="0 0 307 8" fill="none" xmlns="http://www.w3.org/2000/svg">
<path d="M20.4977 4.80277C23.8415 4.53059 26.3861 4.24801 28.6247 3.99933C33.3891 3.4694 36.2584 3.14957 46.4335 3.0066C70.3462 2.66663 88.3268 3.76272 109.145 5.02897C121.706 5.79315 134.685 6.58351 149.699 7.08054C160.799 7.44837 172.032 7.63396 183.64 7.63396C202.495 7.63396 222.349 7.14431 244.229 6.15661C261.666 5.36894 280.83 4.23694 301.196 2.7908C307.091 2.3723 308.708 1.51952 304.815 0.88623C300.928 0.253274 293.007 0.079429 287.096 0.497261C268.048 1.85077 250.292 2.90155 234.326 3.62345C195.985 5.35451 173 4.97796 157.236 4.45508C144.872 4.04463 133.642 3.36134 121.743 2.63777C99.0046 1.25338 75.5197 -0.174962 43.1022 0.280794C24.0726 0.549615 16.0736 1.44032 10.2289 2.08972C8.41178 2.29209 6.84445 2.46728 5.08667 2.6089C-0.551969 3.06667 -1.67283 3.92851 2.57956 4.53462C6.8382 5.13804 14.8434 5.25987 20.4977 4.80277Z" fill="#0C9748"/>
</svg>
