<svg width="279" height="8" viewBox="0 0 279 8" fill="none" xmlns="http://www.w3.org/2000/svg">
<path d="M18.6282 4.80277C21.667 4.53059 23.9795 4.24801 26.014 3.99933C30.3438 3.4694 32.9514 3.14957 42.1985 3.0066C63.9303 2.66663 80.2709 3.76272 99.1908 5.02897C110.606 5.79315 122.401 6.58351 136.046 7.08054C146.133 7.44837 156.342 7.63396 166.891 7.63396C184.026 7.63396 202.07 7.14431 221.954 6.15661C237.801 5.36894 255.217 4.23694 273.725 2.7908C279.083 2.3723 280.552 1.51952 277.014 0.88623C273.481 0.253274 266.283 0.079429 260.912 0.497261C243.601 1.85077 227.464 2.90155 212.954 3.62345C178.11 5.35451 157.221 4.97796 142.895 4.45508C131.659 4.04463 121.453 3.36134 110.64 2.63777C89.9749 1.25338 68.6319 -0.174962 39.171 0.280794C21.877 0.549615 14.6076 1.44032 9.29594 2.08972C7.64457 2.29209 6.22019 2.46728 4.62272 2.6089C-0.501638 3.06667 -1.52027 3.92851 2.34428 4.53462C6.21451 5.13804 13.4896 5.25987 18.6282 4.80277Z" fill="#FBE550"/>
</svg>
