<svg width="377" height="8" viewBox="0 0 377 8" fill="none" xmlns="http://www.w3.org/2000/svg">
<path d="M25.1715 4.80277C29.2778 4.53059 32.4025 4.24801 35.1516 3.99933C41.0023 3.4694 44.5258 3.14957 57.021 3.0066C86.3861 2.66663 108.467 3.76272 134.032 5.02897C149.456 5.79315 165.395 6.58351 183.833 7.08054C197.463 7.44837 211.258 7.63396 225.513 7.63396C248.667 7.63396 273.048 7.14431 299.917 6.15661C321.33 5.36894 344.863 4.23694 369.873 2.7908C377.112 2.3723 379.098 1.51952 374.317 0.88623C369.543 0.253274 359.816 0.079429 352.558 0.497261C329.167 1.85077 307.362 2.90155 287.755 3.62345C240.673 5.35451 212.446 4.97796 193.088 4.45508C177.905 4.04463 164.114 3.36134 149.502 2.63777C121.579 1.25338 92.7392 -0.174962 52.9301 0.280794C29.5615 0.549615 19.7386 1.44032 12.5613 2.08972C10.3298 2.29209 8.40513 2.46728 6.24655 2.6089C-0.677767 3.06667 -2.0542 3.92851 3.1678 4.53462C8.39746 5.13804 18.228 5.25987 25.1715 4.80277Z" fill="#0C9748"/>
</svg>
