<svg width="375" height="8" viewBox="0 0 375 8" fill="none" xmlns="http://www.w3.org/2000/svg">
<path d="M25.038 4.80277C29.1224 4.53059 32.2306 4.24801 34.9651 3.99933C40.7848 3.4694 44.2896 3.14957 56.7186 3.0066C85.9279 2.66663 107.891 3.76272 133.321 5.02897C148.664 5.79315 164.517 6.58351 182.857 7.08054C196.415 7.44837 210.137 7.63396 224.316 7.63396C247.348 7.63396 271.599 7.14431 298.326 6.15661C319.625 5.36894 343.034 4.23694 367.911 2.7908C375.111 2.3723 377.087 1.51952 372.331 0.88623C367.583 0.253274 357.907 0.079429 350.688 0.497261C327.42 1.85077 305.732 2.90155 286.228 3.62345C239.396 5.35451 211.319 4.97796 192.064 4.45508C176.961 4.04463 163.243 3.36134 148.709 2.63777C120.934 1.25338 92.2472 -0.174962 52.6493 0.280794C29.4047 0.549615 19.6339 1.44032 12.4946 2.08972C10.275 2.29209 8.36054 2.46728 6.21341 2.6089C-0.674172 3.06667 -2.0433 3.92851 3.15099 4.53462C8.35291 5.13804 18.1313 5.25987 25.038 4.80277Z" fill="#0C9748"/>
</svg>
