<svg width="110" height="50" viewBox="0 0 110 50" fill="none" xmlns="http://www.w3.org/2000/svg">
<path d="M109.073 41.0002C106.251 38.6755 103.368 36.553 100.355 34.4963C97.7401 32.5789 94.8493 30.1184 91.7907 28.9395C90.1272 28.2474 88.5346 30.5956 89.8843 31.96C89.8843 31.96 89.9533 32.0958 90.0836 32.0295C90.0303 32.5694 89.908 32.9736 89.7243 33.5795C89.5941 33.6457 89.4026 33.9138 89.2723 33.98C89.0809 34.2483 88.9585 34.6523 88.8363 35.0566C79.8003 34.6961 70.9025 34.6072 62.0423 33.3029C59.398 32.9387 56.8148 32.3723 54.224 31.4686C58.6566 23.7451 62.7498 12.776 56.9664 4.95046C49.2808 -5.32567 40.7969 6.68003 39.8589 14.506C38.5619 23.8818 41.861 29.7237 49.4581 33.3795C46.411 38.3474 42.4289 42.7657 37.4714 44.945C25.6725 50.4334 18.1943 40.5645 16.5629 29.9436C20.6399 29.5791 24.7542 27.9992 27.7264 25.4621C33.1573 20.9908 33.6553 8.43238 26.4567 4.91564C19.3272 1.53468 13.7042 17.5542 13.2163 22.075C13.0485 23.3567 12.95 24.774 12.9815 26.1253C12.7822 26.0557 12.6517 26.1221 12.4526 26.0524C-0.101687 24.5761 3.76085 12.1863 8.46966 5.00607C9.23538 3.933 7.56402 2.90311 6.72924 3.8404C1.41465 10.4743 -3.41472 20.9631 5.62482 27.1325C7.83291 28.573 10.4239 29.477 13.1293 29.6391C14.0622 38.5644 18.4821 47.2546 27.7566 49.3734C38.8861 51.9162 46.9735 42.676 52.3178 34.4889C52.517 34.5582 52.517 34.5582 52.7164 34.628C63.8162 38.7241 76.3924 38.3094 87.9956 38.5605C87.8278 39.8421 87.7292 41.2598 87.5613 42.5413C87.5159 43.4191 88.1296 44.3034 88.9267 44.5813C95.3577 46.2666 102.217 46.5378 108.561 44.5073C110.201 44.1861 110.484 42.1628 109.073 41.0002ZM47.0947 28.0875C41.6051 24.3852 42.4974 17.4369 43.9501 11.9127C45.8232 4.63658 53.6773 2.35099 56.1808 10.8193C57.402 15.1544 55.604 19.9997 54.181 23.9706C53.4389 26.0571 52.4367 28.2762 51.2348 30.4256C49.7704 29.8032 48.3673 28.9784 47.0947 28.0875ZM16.3462 26.2942C16.3462 26.2942 16.2771 26.1584 16.3462 26.2942C16.3048 21.7008 17.5287 17.6602 19.6796 13.8318C20.6289 12.1526 21.7775 10.543 23.2635 9.2745C27.0012 5.66441 28.5162 14.1227 28.5714 16.4873C28.4605 23.0381 22.0016 25.8105 16.3462 26.2942ZM91.4841 41.2297C91.4151 41.0939 91.5453 41.0277 91.4763 40.8919C91.867 40.6932 92.1195 40.2226 92.1039 39.5473C92.0112 38.3981 92.0487 37.1826 92.0862 35.967C92.1395 35.4271 92.5066 34.215 92.2461 34.3475C92.3764 34.2812 92.4376 34.0792 92.3685 33.9434C93.9095 35.0393 95.7112 36.0032 97.2522 37.0991C99.261 38.4701 101.339 39.9768 103.417 41.4838C99.6775 42.1899 95.5236 42.0808 91.4841 41.2297Z" fill="#DBC740"/>
</svg>
