<svg width="355" height="378" viewBox="0 0 355 378" fill="none" xmlns="http://www.w3.org/2000/svg">
<g clip-path="url(#clip0_218_87)">
<path d="M247.295 317.901C248.541 296.761 243.469 275.954 233.183 257.831C237.122 260.818 241.478 262.858 246.382 262.819C252.749 262.721 259.557 258.846 260.872 252.185C264.683 233.336 233.331 223.163 219.759 218.744C230.844 195.308 235.773 168.856 237.171 143.14C238.756 117.139 237.824 89.0829 232.056 63.754C229.858 54.3856 225.346 44.517 215.462 41.2945C208.179 38.7586 199.845 40.6175 195.892 47.5825C193.008 52.6051 193.484 59.0158 193.528 64.5338C193.587 71.8911 193.645 79.2485 193.94 86.5568C194.577 101.409 195.357 116.354 196.843 131.152C197.103 134.169 201.67 133.094 201.317 130.22C199.384 106.794 196.642 82.4317 198.153 59.0256C198.742 50.0595 203.916 42.4716 213.849 45.9296C219.524 47.818 222.864 52.6493 225.076 57.9613C229.118 67.928 229.687 80.0922 230.81 90.7898C235.597 134.993 231.03 177.337 215.894 219.058C215.707 219.342 215.756 219.577 215.948 219.906C215.58 221.088 215.967 222.359 217.434 222.913C229.304 226.827 242.92 230.869 251.768 240.325C257.335 246.412 258.076 256.453 248.232 258.135C239.329 259.621 232.335 251.989 226.631 246.422C225.252 245.112 223.33 246.496 223.766 248.001C222.971 248.904 222.604 250.086 223.462 251.258C238.49 272.693 245.544 299.473 241.885 325.538C241.482 328.324 240.938 331.017 240.016 333.665C239.417 335.51 238.534 337.167 237.274 338.781C235.322 342.381 232.732 342.921 229.318 340.684C222.937 338.943 222.294 335.269 219.891 329.629C218.881 327.137 217.87 324.645 216.624 322.203C212.7 315.159 206.049 309.175 197.427 310.235C188.897 311.152 185.606 318.347 185.527 326.224C185.424 331.036 187.661 339.414 183.541 343.22C175.158 350.739 169.272 334.278 167.296 328.917C158.629 306.772 160.841 282.605 163.863 259.376C163.956 259.233 164.191 259.184 164.191 259.184C165.648 258.512 165.211 257.007 164.216 256.354C164.304 255.599 164.485 254.701 164.574 253.946C164.75 252.435 162.2 251.984 162.023 253.495C161.749 254.535 161.523 255.81 161.248 256.85C157.628 258.341 154.769 260.533 151.345 262.966C148.343 265.065 142.384 268.886 138.264 266.797C132.628 263.918 135.645 257.762 137.219 254.118C142.448 241.483 151.326 231.035 162.014 222.79C163.514 221.74 162.744 219.813 161.371 219.116L161.322 218.881C162.22 219.062 163.21 219.102 164.338 218.621C165.888 217.807 164.976 215.786 163.421 215.987C160.547 216.34 150.786 187.176 149.295 183.556C145.111 173.496 140.878 163.2 136.695 153.141C127.464 131.235 117.06 110.188 117.154 86.4634C117.163 81.7939 117.551 77.1686 118.174 72.4943C118.846 68.0553 119.763 58.8979 123.319 55.3321C131.084 47.2047 139.486 53.9293 142.993 61.9194C145.489 67.4178 146.765 73.5391 148.226 79.3759C153.724 100.462 157.104 121.99 158.928 143.718C158.271 144.101 157.756 144.577 157.099 144.959C155.598 146.009 157.222 148.496 158.865 147.539C173.182 139.029 189.148 136.072 205.584 138.912C208.277 139.456 209.228 134.59 206.442 134.188C191.468 131.289 176.488 133.673 163.387 140.947C162.092 126.478 160.184 112.013 157.099 97.7938C154.401 84.8449 152.248 69.2032 145.975 57.3676C142.144 50.182 133.84 43.9282 125.237 47.4401C116.305 51.1433 114.52 63.7979 113.22 72.2981C109.016 101.055 119.969 125.918 130.647 151.821C136.901 167.1 143.247 182.236 149.737 197.466C151.13 200.615 153.42 209.841 156.952 215.001C155.961 214.962 154.975 215.536 154.416 216.389C153.763 217.385 153.68 218.753 154.396 219.832C154.637 220.396 155.255 221.005 155.824 221.377C148.888 226.998 142.997 233.507 138.2 241.139C134.522 247.064 128.278 256.595 130.083 264.079C131.446 269.445 136.513 271.952 141.84 271.579C149.241 271.142 154.146 265.208 159.963 261.293C156.343 280.472 155.088 300.385 159.531 319.358C161.582 328.02 172.367 361.515 185.88 346.786C193.689 338.281 185.949 325.891 192.63 317.867C200.198 308.797 209.998 319.284 213.451 326.426C216.09 332.017 217.321 338.516 221.838 343.102C226.974 348.297 234.238 348.38 239.29 343.151C245.843 336.873 246.843 326.347 247.295 317.901Z" fill="#D3EEF9"/>
<path d="M153.808 146.259C150.683 127.135 146.71 108.065 143.257 89.1317C142.517 84.9871 140.05 59.5846 129.622 70.8463C126.208 74.5053 126.547 81.4359 126.301 86.1544C125.84 93.3744 126.37 100.634 127.37 107.795C129.568 123.059 135.243 136.739 143.787 149.452C143.655 150.585 145.219 151.61 146.058 150.33C146.897 149.05 148.918 148.138 150.433 148.927C151.095 149.158 151.851 149.246 152.366 148.77C152.459 148.628 152.645 148.344 152.739 148.201C153.587 148.147 154.053 147.436 153.808 146.259ZM145.185 147.318C134.227 127.738 128.714 104.813 130.799 82.3924C130.882 81.0239 131.108 79.7486 131.191 78.3802C134.458 74.0148 136.199 73.5292 136.273 76.8302C137.798 78.8462 137.651 84.0355 138.191 86.6253C139.422 93.1243 140.653 99.6233 141.884 106.122C144.538 119.449 146.813 132.731 149.653 145.773C148.049 145.739 146.45 146.318 145.185 147.318Z" fill="#D3EEF9"/>
<path d="M225.321 135.782C225.13 135.454 224.845 135.267 224.654 134.939C225.076 134.605 225.449 134.036 225.444 133.423C226.253 116.673 225.459 99.8883 223.815 83.1578C223.242 76.2762 223.58 53.7284 211.794 54.3415C199.487 54.8172 206.06 80.4698 206.678 86.9737C207.413 96.4009 208.149 105.828 209.12 115.206C209.832 121.568 210.636 127.787 215.06 132.516C214.594 133.227 214.697 134.311 215.644 134.728C217.253 135.375 218.626 136.072 220.235 136.719C221.701 137.273 222.888 138.254 224.394 137.818C225.194 137.528 225.846 136.533 225.321 135.782ZM211.514 96.038C210.994 90.005 210.567 83.8297 210.047 77.7967C209.837 75.0156 209.626 72.2345 209.415 69.4535C207.399 65.0832 208.419 62.9054 212.475 62.9202C215.477 60.8209 217.135 61.7037 217.214 65.6179C220.411 76.2517 220.279 89.1761 220.745 100.256C221.353 111.43 221.299 122.372 221.152 133.457C221.059 133.6 221.201 133.693 221.108 133.835C219.926 133.467 218.744 133.099 217.655 132.589C217.699 132.212 217.65 131.976 217.459 131.647C210.734 122.363 212.451 107.02 211.514 96.038Z" fill="#D3EEF9"/>
<path d="M213.535 195.352C213.196 194.317 211.303 193.483 210.606 194.857C208.796 198.55 207.413 202.523 202.415 202.705C196.284 202.754 194.003 194.754 196.892 190.344C197.638 189.206 196.117 187.803 195.087 188.755C194.199 189.8 193.547 190.795 193.179 191.978C192.895 191.791 192.846 191.556 192.561 191.369C195.646 187.902 197.878 183.875 199.021 179.338C199.389 178.156 198.481 176.748 197.255 176.758C192.301 176.561 187.396 176.601 182.349 176.547C180.981 176.463 180.618 178.258 181.614 178.911C181.192 179.244 181.054 179.764 181.295 180.328C182.32 184.659 186.121 188.166 189.118 191.35C189.736 191.958 190.776 192.233 191.718 192.036C193.302 195.514 189.947 200.635 186.558 201.464C180.579 202.832 177.601 196.205 176.292 191.688C175.757 189.711 173.26 190.109 172.898 191.904C171.544 199.556 179.72 207.555 187.534 205.559C190.217 204.877 192.419 203.067 193.768 200.698C195.063 203.376 197.25 205.623 200.463 206.305C205.804 207.771 215.948 202.219 213.535 195.352ZM190.869 186.195C189.152 183.85 187.151 181.319 185.062 179.544C188.176 179.755 191.34 180.201 194.455 180.412C193.528 182.447 192.458 184.39 190.869 186.195Z" fill="#D3EEF9"/>
<path d="M177.665 168.802C178.337 164.363 173.947 158.031 169.096 158.918C165.423 159.561 162.578 163.593 165.104 166.874C166.247 168.233 168.876 166.703 167.777 164.966C166.869 163.559 169.077 162.362 170.352 162.587C173.187 163.225 173.648 167.796 175.124 169.577C176.311 170.558 177.533 169.935 177.665 168.802Z" fill="#D3EEF9"/>
<path d="M213.991 163.936C213.167 161.16 210.788 158.585 207.766 158.232C203.234 157.702 197.947 162.98 200.86 167.531C201.959 169.268 204.637 167.973 203.867 166.045C202.955 164.025 205.957 161.925 207.752 162.288C209.311 162.7 210.175 164.486 210.376 166.04C210.626 167.831 209.65 169.631 210.135 171.372C210.332 172.314 211.327 172.966 212.313 172.392C215.134 171.191 214.766 166.477 213.991 163.936Z" fill="#D3EEF9"/>
<path d="M204.706 282.679C204.97 280.413 204.48 278.059 203.19 275.994C202.425 274.679 201.385 274.404 199.972 274.699C199.031 274.895 198.045 275.469 197.343 276.229C195.941 277.75 195.112 280.256 196.024 282.277C196.215 282.605 196.407 282.934 196.691 283.12C197.172 284.249 198.216 285.136 199.163 285.553C200.11 285.97 201.1 286.009 202.042 285.813C203.783 285.328 204.529 284.19 204.706 282.679Z" fill="#D3EEF9"/>
</g>
<defs>
<clipPath id="clip0_218_87">
<rect width="260.18" height="280.416" fill="white" transform="translate(153.676) rotate(33.2318)"/>
</clipPath>
</defs>
</svg>
