<svg width="32" height="31" viewBox="0 0 32 31" fill="none" xmlns="http://www.w3.org/2000/svg">
<path d="M5.98818 2.44092C4.31004 2.44092 2.937 3.81395 2.937 5.4921V25.0197C2.937 26.6978 4.31004 28.0708 5.98818 28.0708H16.2597C16.3252 28.0816 16.3932 28.0816 16.4587 28.0708H19.9211C19.9867 28.0816 20.0546 28.0816 20.1202 28.0708H25.5157C27.1939 28.0708 28.5669 26.6978 28.5669 25.0197V5.4921C28.5669 3.81395 27.1939 2.44092 25.5157 2.44092H5.98818ZM5.98818 3.66139H25.5157C26.5336 3.66139 27.3464 4.47424 27.3464 5.4921V25.0197C27.3464 26.0375 26.5336 26.8504 25.5157 26.8504H20.6339V18.3071H22.9651L23.8197 14.0354H20.6339V12.8149C20.6339 12.4753 20.666 12.4478 20.7804 12.3739C20.8949 12.3 21.2477 12.2047 21.8543 12.2047H23.685V8.76854L23.337 8.60287C23.337 8.60287 21.9354 7.93304 20.0236 7.93304C18.6506 7.93304 17.5231 8.48011 16.8008 9.38236C16.0785 10.2846 15.752 11.4932 15.752 12.8149V14.0354H13.9213V18.3071H15.752V26.8504H5.98818C4.97033 26.8504 4.15748 26.0375 4.15748 25.0197V5.4921C4.15748 4.47424 4.97033 3.66139 5.98818 3.66139ZM20.0236 9.15352C21.2918 9.15352 22.0903 9.43361 22.4646 9.5814V10.9842H21.8543C21.1523 10.9842 20.5898 11.0426 20.1154 11.3501C19.641 11.6576 19.4134 12.2416 19.4134 12.8149V15.2559H22.3299L21.964 17.0866H19.4134V26.8504H16.9724V17.0866H15.1417V15.2559H16.9724V12.8149C16.9724 11.6958 17.2561 10.7685 17.7543 10.1452C18.2525 9.5218 18.9557 9.15352 20.0236 9.15352Z" />
</svg>
