<svg width="31" height="31" viewBox="0 0 31 31" fill="none" xmlns="http://www.w3.org/2000/svg">
<path d="M10.2521 1.83057C5.87795 1.83057 2.31903 5.38948 2.31903 9.76364V20.7479C2.31903 25.122 5.87795 28.681 10.2521 28.681H21.2364C25.6105 28.681 29.1694 25.122 29.1694 20.7479V9.76364C29.1694 5.38948 25.6105 1.83057 21.2364 1.83057H10.2521ZM10.2521 3.05104H21.2364C24.9502 3.05104 27.949 6.04978 27.949 9.76364V20.7479C27.949 24.4617 24.9502 27.4605 21.2364 27.4605H10.2521C6.53825 27.4605 3.53951 24.4617 3.53951 20.7479V9.76364C3.53951 6.04978 6.53825 3.05104 10.2521 3.05104ZM23.0671 6.71246C22.3925 6.71246 21.8466 7.25833 21.8466 7.93293C21.8466 8.60753 22.3925 9.1534 23.0671 9.1534C23.7417 9.1534 24.2875 8.60753 24.2875 7.93293C24.2875 7.25833 23.7417 6.71246 23.0671 6.71246ZM15.7442 8.54316C12.0447 8.54316 9.03163 11.5562 9.03163 15.2558C9.03163 18.9553 12.0447 21.9684 15.7442 21.9684C19.4438 21.9684 22.4568 18.9553 22.4568 15.2558C22.4568 11.5562 19.4438 8.54316 15.7442 8.54316ZM15.7442 9.76364C18.7847 9.76364 21.2364 12.2153 21.2364 15.2558C21.2364 18.2962 18.7847 20.7479 15.7442 20.7479C12.7038 20.7479 10.2521 18.2962 10.2521 15.2558C10.2521 12.2153 12.7038 9.76364 15.7442 9.76364Z" />
</svg>
