<svg width="22" height="21" viewBox="0 0 22 21" fill="none" xmlns="http://www.w3.org/2000/svg">
<g clip-path="url(#clip0_215:298)">
<path d="M10.595 20.9777C16.3538 20.9777 21.0394 16.2925 21.0394 10.5333C21.0394 9.53931 20.9006 8.55972 20.6259 7.62158C20.4905 7.16026 20.0088 6.89528 19.5462 7.03064C19.0845 7.16557 18.8204 7.64899 18.9553 8.11031C19.1829 8.88972 19.2987 9.70526 19.2987 10.5333C19.2987 15.3324 15.3942 19.237 10.595 19.237C5.79594 19.237 1.89142 15.3324 1.89142 10.5333C1.89142 5.73423 5.79594 1.82971 10.595 1.82971C12.3392 1.82971 14.0172 2.33969 15.4477 3.30419C15.8459 3.57299 16.3873 3.46738 16.6557 3.06917C16.9243 2.67054 16.8195 2.12954 16.4209 1.86095C14.7019 0.701813 12.6874 0.0889893 10.595 0.0889893C4.83633 0.0889893 0.150696 4.7742 0.150696 10.5333C0.150696 16.2925 4.83633 20.9777 10.595 20.9777V20.9777Z" fill="#2AB7F3"/>
<path d="M19.4292 2.13422L10.4705 11.0924L7.60447 8.22676C7.26449 7.88699 6.71371 7.88699 6.37373 8.22676C6.03395 8.56675 6.03395 9.11752 6.37373 9.45751L9.85518 12.939C10.0254 13.1092 10.2476 13.1939 10.4705 13.1939C10.6935 13.1939 10.9157 13.1092 11.0859 12.939L20.6599 3.36497C20.9997 3.02499 20.9997 2.47421 20.6599 2.13422C20.3199 1.79445 19.7691 1.79445 19.4292 2.13422Z" fill="#DBC740"/>
</g>
<defs>
<clipPath id="clip0_215:298">
<rect width="20.8887" height="20.8887" fill="white" transform="translate(0.150696 0.0889893)"/>
</clipPath>
</defs>
</svg>
