<svg width="124" height="8" viewBox="0 0 124 8" fill="none" xmlns="http://www.w3.org/2000/svg">
<path d="M8.27917 5.14798C9.62978 4.8923 10.6576 4.62685 11.5617 4.39323C13.4861 3.89542 14.6451 3.59497 18.7549 3.46067C28.4134 3.1413 35.6759 4.17097 44.0848 5.36047C49.1581 6.07834 54.4003 6.82079 60.4648 7.28771C64.9479 7.63324 69.4853 7.80758 74.1739 7.80758C81.7895 7.80758 89.8087 7.34761 98.6463 6.41977C105.689 5.67984 113.43 4.61644 121.656 3.25795C124.037 2.86481 124.69 2.06372 123.117 1.46881C121.547 0.874213 118.348 0.710905 115.961 1.10341C108.267 2.37489 101.095 3.36199 94.6462 4.04013C79.1602 5.66628 69.8762 5.31255 63.5091 4.82137C58.5152 4.43579 53.9791 3.79391 49.1732 3.11419C39.9888 1.81371 30.503 0.471932 17.4093 0.900065C9.7231 1.15259 6.49223 1.98932 4.13151 2.59936C3.39756 2.78947 2.76451 2.95403 2.05452 3.08708C-0.222972 3.5171 -0.675697 4.32671 1.04188 4.89608C2.76198 5.46294 5.99537 5.57738 8.27917 5.14798Z" fill="#43B3E3"/>
</svg>
