<svg width="364" height="8" viewBox="0 0 364 8" fill="none" xmlns="http://www.w3.org/2000/svg">
<path d="M24.3035 4.80277C28.2682 4.53059 31.2852 4.24801 33.9394 3.99933C39.5885 3.4694 42.9905 3.14957 55.0548 3.0066C83.4073 2.66663 104.726 3.76272 129.41 5.02897C144.303 5.79315 159.691 6.58351 177.494 7.08054C190.654 7.44837 203.973 7.63396 217.736 7.63396C240.092 7.63396 263.632 7.14431 289.575 6.15661C310.25 5.36894 332.971 4.23694 357.119 2.7908C364.108 2.3723 366.025 1.51952 361.409 0.88623C356.8 0.253274 347.409 0.079429 340.401 0.497261C317.816 1.85077 296.764 2.90155 277.832 3.62345C232.374 5.35451 205.121 4.97796 186.43 4.45508C171.771 4.04463 158.455 3.36134 144.347 2.63777C117.387 1.25338 89.5413 -0.174962 51.1049 0.280794C28.5421 0.549615 19.058 1.44032 12.1281 2.08972C9.97362 2.29209 8.11529 2.46728 6.03115 2.6089C-0.654399 3.06667 -1.98336 3.92851 3.05856 4.53462C8.10789 5.13804 17.5994 5.25987 24.3035 4.80277Z" fill="#DD137B"/>
</svg>
