<svg width="489" height="12" viewBox="0 0 489 12" fill="none" xmlns="http://www.w3.org/2000/svg">
<path d="M32.6495 7.3858C37.9757 6.99815 42.0287 6.59568 45.5945 6.2415C53.1834 5.48675 57.7537 5.03123 73.961 4.82761C112.05 4.34341 140.69 5.90451 173.851 7.70796C193.857 8.79633 214.53 9.92199 238.446 10.6299C256.125 11.1538 274.019 11.4181 292.509 11.4181C322.541 11.4181 354.165 10.7207 389.017 9.31399C416.791 8.19216 447.316 6.57991 479.756 4.52027C489.145 3.92422 491.721 2.70965 485.519 1.80769C479.328 0.906207 466.711 0.65861 457.297 1.2537C426.956 3.18142 398.674 4.678 373.242 5.70615C312.172 8.17161 275.56 7.6353 250.451 6.8906C230.758 6.30602 212.869 5.33284 193.917 4.3023C157.698 2.33061 120.29 0.296296 68.6547 0.945402C38.3437 1.32827 25.6026 2.59685 16.293 3.52175C13.3986 3.80998 10.9021 4.05949 8.10229 4.2612C-0.879123 4.91317 -2.66446 6.14064 4.10889 7.00388C10.8922 7.8633 23.6432 8.03681 32.6495 7.3858Z" fill="#2AB7F3"/>
</svg>
