<svg width="278" height="8" viewBox="0 0 278 8" fill="none" xmlns="http://www.w3.org/2000/svg">
<path d="M18.5614 4.80277C21.5894 4.53059 23.8936 4.24801 25.9207 3.99933C30.2351 3.4694 32.8334 3.14957 42.0473 3.0066C63.7012 2.66663 79.9832 3.76272 98.8353 5.02897C110.209 5.79315 121.962 6.58351 135.558 7.08054C145.609 7.44837 155.782 7.63396 166.293 7.63396C183.367 7.63396 201.345 7.14431 221.159 6.15661C236.949 5.36894 254.302 4.23694 272.744 2.7908C278.082 2.3723 279.547 1.51952 276.021 0.88623C272.501 0.253274 265.329 0.079429 259.977 0.497261C242.728 1.85077 226.649 2.90155 212.191 3.62345C177.472 5.35451 156.658 4.97796 142.383 4.45508C131.187 4.04463 121.018 3.36134 110.243 2.63777C89.6524 1.25338 68.3859 -0.174962 39.0307 0.280794C21.7986 0.549615 14.5552 1.44032 9.26265 2.08972C7.6172 2.29209 6.19792 2.46728 4.60619 2.6089C-0.49981 3.06667 -1.51479 3.92851 2.33591 4.53462C6.19227 5.13804 13.4413 5.25987 18.5614 4.80277Z" fill="#FBE550"/>
</svg>
