<svg width="253" height="8" viewBox="0 0 253 8" fill="none" xmlns="http://www.w3.org/2000/svg">
<path d="M16.8922 4.80277C19.6479 4.53059 21.7449 4.24801 23.5897 3.99933C27.5161 3.4694 29.8807 3.14957 38.2661 3.0066C57.9726 2.66663 72.7905 3.76272 89.9472 5.02897C100.298 5.79315 110.994 6.58351 123.368 7.08054C132.515 7.44837 141.772 7.63396 151.339 7.63396C166.877 7.63396 183.239 7.14431 201.27 6.15661C215.64 5.36894 231.433 4.23694 248.217 2.7908C253.075 2.3723 254.408 1.51952 251.199 0.88623C247.996 0.253274 241.468 0.079429 236.597 0.497261C220.9 1.85077 206.267 2.90155 193.109 3.62345C161.512 5.35451 142.57 4.97796 129.579 4.45508C119.39 4.04463 110.135 3.36134 100.329 2.63777C81.5901 1.25338 62.2361 -0.174962 35.5207 0.280794C19.8383 0.549615 13.2463 1.44032 8.42967 2.08972C6.93219 2.29209 5.64055 2.46728 4.19195 2.6089C-0.454871 3.06667 -1.37858 3.92851 2.12584 4.53462C5.6354 5.13804 12.2326 5.25987 16.8922 4.80277Z" fill="#DD137B"/>
</svg>
