<svg width="387" height="8" viewBox="0 0 387 8" fill="none" xmlns="http://www.w3.org/2000/svg">
<path d="M25.8391 4.80277C30.0543 4.53059 33.262 4.24801 36.0839 3.99933C42.0899 3.4694 45.7069 3.14957 58.5335 3.0066C88.6775 2.66663 111.344 3.76272 137.587 5.02897C153.421 5.79315 169.782 6.58351 188.709 7.08054C202.7 7.44837 216.861 7.63396 231.495 7.63396C255.263 7.63396 280.29 7.14431 307.872 6.15661C329.853 5.36894 354.011 4.23694 379.684 2.7908C387.115 2.3723 389.153 1.51952 384.245 0.88623C379.345 0.253274 369.36 0.079429 361.91 0.497261C337.898 1.85077 315.515 2.90155 295.388 3.62345C247.057 5.35451 218.081 4.97796 198.21 4.45508C182.624 4.04463 168.467 3.36134 153.468 2.63777C124.804 1.25338 95.1991 -0.174962 54.3341 0.280794C30.3456 0.549615 20.2622 1.44032 12.8944 2.08972C10.6038 2.29209 8.62805 2.46728 6.41221 2.6089C-0.695773 3.06667 -2.10871 3.92851 3.2518 4.53462C8.62018 5.13804 18.7115 5.25987 25.8391 4.80277Z" fill="#DD137B"/>
</svg>
