<svg width="277" height="348" viewBox="0 0 277 348" fill="none" xmlns="http://www.w3.org/2000/svg">
<g clip-path="url(#clip0_218_98)">
<path d="M246.044 266.654C246.726 262.419 247.031 257.925 246.801 253.203C245.902 237.927 239.922 224.425 231.011 212.789C238.907 213.771 247.551 207.384 251.263 200.936C256.617 191.88 254.562 180.928 247.149 173.776C231.887 158.895 208.287 170.39 207.494 189.763C204.422 187.382 201.192 185.031 197.833 182.868C220.448 163.507 229.477 132.071 223.371 102.163C220.134 86.668 212.708 72.4524 202.113 61.4605C211.325 60.7172 219.738 46.9789 221.537 39.0829C223.91 28.1217 218.069 16.2374 208.389 10.9891C186.641 -0.866651 164.154 18.3066 163.204 40.3384C155.942 39.2367 148.414 39.3354 140.649 40.793C140.49 40.8227 140.332 40.8525 140.332 40.8525C138.318 34.4938 133.511 28.9879 126.597 27.9855C119.999 26.9236 113.76 30.3951 110.692 35.9003C104.883 26.8034 93.5366 17.9244 84.0521 28.5775C77.0031 36.4731 80.4946 46.3337 87.9956 51.3338C77.0012 53.0689 66.8004 57.2841 57.9676 63.5428C57.9676 63.5428 57.9676 63.5428 57.9378 63.3841C49.905 44.1887 24.1375 38.0167 10.8724 55.6233C5.09116 63.2809 4.37292 73.4387 8.76522 81.98C13.6234 91.2553 22.5304 95.0057 32.4954 94.7783C29.7943 101.365 28.0048 108.437 27.4139 115.778C24.548 150.328 45.5726 181.052 75.5048 196.3C81.4794 199.287 87.6815 201.737 94.2398 203.464C92.9435 206.172 91.6769 209.039 90.4104 211.905C78.7054 198.493 56.0731 202.906 52.4167 221.009C49.0665 237.247 65.844 252.337 81.1148 244.541C79.7138 256.306 80.2741 268.031 84.5092 279.231C87.1177 286.135 90.8749 292.166 95.335 297.573C76.2963 297.532 69.84 322.569 83.872 334.394C98.2508 346.319 123.258 336.203 122.971 317.196C127.945 319.22 133.176 320.867 138.605 321.82C168.077 327.625 208.151 319.117 230.358 296.71C239.389 311.61 262.925 311.136 269.424 293.32C274.43 278.907 260.168 262.36 246.044 266.654ZM244.446 177.733C250.383 184.013 251.259 193.05 246.339 200.053C241.647 206.52 235.694 207.145 228.434 208.672C228.275 208.702 228.117 208.731 227.988 208.92C222.934 202.968 217.146 197.482 210.943 192.402C211.737 175.658 231.325 163.765 244.446 177.733ZM201.317 12.6452C210.303 15.0663 216.666 22.7447 217.572 31.9404C218.636 41.1063 210.154 55.3505 200.953 57.8992C200.319 58.0182 200.061 58.3951 199.834 58.9308C197.862 57.1649 195.89 55.399 193.789 53.8216C197.79 52.4133 200.72 47.9199 201.649 44.1306C202.944 38.7938 201.05 33.07 196.115 30.3814C191.716 27.9209 185.862 28.1982 181.624 30.9655C177.098 33.9511 175.902 38.9406 176.509 43.9204C173.14 42.581 169.673 41.5887 166.077 40.785C168.486 23.9017 182.653 7.60454 201.317 12.6452ZM190.311 51.024C190.152 51.0537 190.182 51.2124 190.024 51.2422C186.635 48.9207 182.959 46.8174 179.214 45.2201C179.321 41.4208 180.002 37.1851 183.003 34.8145C185.716 32.6621 189.866 32.0474 193.234 33.3868C197.138 34.9545 198.834 38.7439 198.093 42.6622C197.154 47.2748 194.163 48.8221 190.311 51.024ZM12.2314 80.3435C8.55288 72.9827 9.06383 64.3426 14.0729 57.8158C25.7939 42.4708 47.7675 48.5334 54.6301 64.9908C54.6896 65.3083 54.8779 65.4372 55.0662 65.5662C53.5017 66.8457 51.9372 68.1253 50.561 69.5338C45.7244 63.8692 33.9255 61.319 28.6685 67.3994C22.0354 74.8883 31.0235 82.5669 37.7606 85.2458C36.2462 87.6661 34.92 90.2153 33.7524 92.7349C24.5988 91.1669 16.5939 88.726 12.2314 80.3435ZM47.749 72.0334C44.2936 75.4753 41.2445 79.3338 38.572 83.4503C34.2716 80.6427 24.6794 73.2418 32.8295 68.5901C38.1771 65.6145 43.4486 69.2257 47.749 72.0334ZM88.3629 197.502C59.3543 187.173 35.5094 162.402 31.7599 131.065C29.6218 113.556 33.8525 95.0164 44.6727 80.9907C56.5819 65.7746 73.715 58.2865 91.8599 53.566C87.058 58.5752 89.1721 67.2154 96.6027 70.0927C104.727 73.1685 114.164 66.632 112.495 57.7438C112.257 56.474 110.514 56.8013 110.594 58.1008C110.249 63.259 107.715 66.3637 103.149 67.3851C95.4826 68.4956 93.321 63.972 96.8525 53.9433C98.2192 53.3582 97.8021 51.1361 96.3162 51.0864C96.1577 51.1162 96.1577 51.1162 95.9695 50.9872C95.7514 50.6995 95.3749 50.4416 94.8696 50.3721C94.5527 50.4316 94.2357 50.4911 93.889 50.3918C83.8036 47.3556 78.7153 33.3585 90.5401 28.1812C99.7901 24.1445 106.104 33.3109 109.783 40.6716C110.338 41.8819 112.488 41.9713 113.042 40.5529C114.891 33.7976 121.575 30.0782 128.223 32.2809C134.554 34.5431 137.37 39.9297 138.086 46.3677C138.374 48.7782 142.019 48.094 141.731 45.6835C141.671 45.3661 141.612 45.0486 141.552 44.7312C141.711 44.7015 141.711 44.7015 141.869 44.6717C176.704 37.9685 208.047 62.4826 217.79 95.1591C227.137 126.596 218.666 164.498 190.741 183.542C161.796 203.271 120.928 209.299 88.3629 197.502ZM177.216 196.268C194.736 210.068 205.682 231.674 204.979 254.152C204.238 277.295 187.931 292.68 165.416 295.098C142.902 297.517 121.52 286.743 113.07 265.325C105.82 246.804 104.185 224.108 115.608 207.176C136.401 208.695 157.924 204.49 176.839 196.01C176.839 196.01 177.028 196.139 177.216 196.268ZM57.1127 222.428C59.9685 207.925 77.5295 204.465 86.7667 215.218C87.3613 215.764 87.9261 216.151 88.56 216.032C85.3347 224.196 82.8625 232.875 81.3709 241.535C81.3709 241.535 81.3709 241.535 81.2124 241.565C68.8418 244.709 54.2867 237.089 57.1127 222.428ZM110.447 330.885C104.348 335.973 95.74 336.439 89.0517 332.272C74.5454 323.164 81.0043 303.385 96.4456 299.994C96.7625 299.934 96.8912 299.746 97.0199 299.557C102.986 305.995 110.388 311.343 118.473 315.083C117.168 321.243 115.556 326.639 110.447 330.885ZM216.542 301.768C180.715 325.91 117.281 327.959 92.8729 286.205C77.6454 260.144 88.1708 230.564 96.667 204.159C101.838 205.488 107.237 206.282 112.607 206.917C97.3586 220.953 102.395 250.405 109 267.239C118.065 290.184 140.794 302.02 164.983 299.78C188.854 297.6 207.479 281.452 209.31 257.119C211.14 232.786 199.807 209.116 181.197 193.878C182.405 193.323 183.742 192.579 184.95 192.023C188.228 190.258 191.446 188.175 194.318 185.993C194.506 186.122 194.724 186.409 194.913 186.538C214.869 200.209 233.926 217.828 239.97 242.162C245.925 266.02 236.624 288.14 216.542 301.768ZM264.669 291.584C259.149 306.751 241.239 304.855 232.952 293.923C238.496 287.624 242.723 280.423 244.937 272.12C256.694 270.078 269.605 277.677 264.669 291.584Z" fill="#D3EEF9"/>
<path d="M183.517 154.409C181.586 157.236 177.179 158.227 174.939 155.033C174.285 154.17 172.977 155.072 173.473 155.965C174.058 157.334 175.089 158.455 176.506 159.011C174.371 168.613 169.62 177.392 158.943 179.067C149.85 180.446 141.695 174.582 137.768 166.775C137.639 164.335 137.003 161.825 136.051 159.375C142.607 155.844 143.87 145.091 143.312 138.623C143.262 137.483 141.815 136.768 140.865 136.947C134.209 138.196 127.523 139.287 120.867 140.536C119.599 140.774 118.985 141.875 119.194 142.986C119.772 150.436 124.817 157.212 132.297 158.601C132.455 158.571 132.643 158.7 132.772 158.512C136.392 168.184 133.149 180.623 123.385 185.413C112.54 190.571 100.452 182.981 96.3955 172.734C97.8611 171.802 99.0788 170.423 98.7511 168.677C98.6021 167.883 97.6906 167.397 96.928 167.705C95.5613 168.29 94.8488 169.738 93.3236 170.353C91.7984 170.968 89.6787 171.037 88.2023 170.164C87.2907 169.678 86.0432 170.898 86.8261 171.573C88.6099 173.209 90.7202 173.964 93.2856 173.646C96.4614 186.195 110.819 194.509 123.238 189.877C130.894 186.961 136.002 180.087 137.385 172.598C141.578 179.205 148.802 183.6 157.281 183.323C169.207 183.056 181.039 171.798 180.042 159.497C182.826 159.468 185.5 157.98 186.231 154.885C186.369 153.873 184.16 153.466 183.517 154.409ZM133.772 156.845C133.613 156.875 133.425 156.746 133.267 156.776C133.237 156.617 133.048 156.488 132.86 156.359C128.084 153.641 124.586 149.861 123.444 144.653C128.674 143.671 133.745 142.719 138.975 141.738C139.006 144.525 138.502 147.085 137.523 149.733C136.355 152.253 134.622 154.385 133.772 156.845Z" fill="#D3EEF9"/>
<path d="M114.509 165.226C113.042 163.53 110.417 163.529 109.16 165.573C108.161 167.239 108.687 170.92 111.382 170.414C111.54 170.384 111.54 170.384 111.669 170.196C112.015 170.295 112.521 170.364 112.867 170.464C115.403 169.988 115.976 166.922 114.509 165.226Z" fill="#D3EEF9"/>
<path d="M110.59 173.191C108.48 172.437 106.778 174.728 107.135 176.633C107.165 176.792 107.195 176.951 107.224 177.109C107.304 178.409 108.712 179.788 110.207 179.014C112.306 177.963 113.077 174.203 110.59 173.191Z" fill="#D3EEF9"/>
<path d="M123.358 171.288C122.515 170.296 120.901 170.434 120.069 171.248C119.782 171.466 119.525 171.843 119.267 172.22C118.693 172.656 118.307 173.222 117.921 173.787C117.179 175.076 117.734 176.287 118.834 176.902C121.033 178.132 123.925 176.932 124.271 174.402C124.409 173.391 124.171 172.121 123.358 171.288Z" fill="#D3EEF9"/>
<path d="M159.823 154.913C158.782 154.615 157.832 154.794 156.911 155.131C156.881 154.972 156.851 154.813 156.663 154.684C156.296 153.603 154.612 154.248 154.821 155.359C154.91 155.835 154.811 156.182 154.9 156.658C154.098 157.63 153.673 158.86 154.258 160.229C154.566 160.993 155.576 161.132 156.18 160.855C156.369 160.983 156.527 160.954 156.685 160.924C158.994 160.984 160.944 159.139 161.032 156.986C160.824 155.875 160.516 155.111 159.823 154.913Z" fill="#D3EEF9"/>
<path d="M151.923 165.268C150.972 165.447 149.952 166.131 149.467 167.044C148.833 167.163 148.289 167.758 148.408 168.393C148.558 171.815 153.877 171.31 154.857 168.661C155.48 166.737 153.825 164.911 151.923 165.268Z" fill="#D3EEF9"/>
<path d="M165.464 164.863C164.78 163.841 163.769 163.702 162.69 164.069C161.036 164.872 160.314 167.144 161.404 168.582C161.652 169.029 162.157 169.098 162.663 169.168C162.851 169.297 162.881 169.455 163.039 169.426C164.733 170.586 166.585 169.089 166.574 167.283C166.425 166.49 165.959 165.756 165.464 164.863Z" fill="#D3EEF9"/>
<path d="M105.647 130.248C103.179 127.589 99.4339 125.992 95.8187 126.835C88.8756 128.303 86.0471 137.706 90.7944 142.895C91.8549 144.175 94.2118 142.746 93.2799 141.278C91.3269 137.865 92.5028 131.894 96.9401 131.061C99.1588 130.644 101.388 132.033 102.697 133.76C103.817 135.357 103.54 137.38 104.66 138.977C105.126 139.712 106.454 139.791 107.157 139.166C109.652 136.726 107.708 132.49 105.647 130.248Z" fill="#D3EEF9"/>
<path d="M164.391 118.071C157.695 117.356 152.933 124.33 155.046 130.341C155.721 132.186 158.454 131.016 158.126 129.27C157.6 125.59 160.846 121.037 164.909 122.575C166.325 123.13 167.544 124.38 168.129 125.749C168.714 127.118 168.349 128.666 168.934 130.035C169.301 131.116 171.005 131.453 171.836 130.64C176.034 125.909 169.255 118.637 164.391 118.071Z" fill="#D3EEF9"/>
</g>
<defs>
<clipPath id="clip0_218_98">
<rect width="223" height="312" fill="white" transform="translate(0 41.1409) rotate(-10.6313)"/>
</clipPath>
</defs>
</svg>
