<svg width="18" height="18" viewBox="0 0 18 18" fill="none" xmlns="http://www.w3.org/2000/svg">
<path d="M9 0.0012207C4.0374 0.0012207 0 4.03846 0 9.00073C0 13.9631 4.0374 18.0003 9 18.0003C13.9626 18.0003 18 13.9631 18 9.00073C18 4.03846 13.9626 0.0012207 9 0.0012207ZM9 16.364C4.93969 16.364 1.63636 13.0609 1.63636 9.00078C1.63636 4.94069 4.93969 1.63758 9 1.63758C13.0603 1.63758 16.3636 4.94069 16.3636 9.00073C16.3636 13.0609 13.0603 16.364 9 16.364Z" fill="#2AB7F3"/>
<path d="M9 7.09131C8.54814 7.09131 8.18182 7.45764 8.18182 7.90949V13.3631C8.18182 13.815 8.54814 14.1813 9 14.1813C9.45185 14.1813 9.81818 13.815 9.81818 13.3631V7.90949C9.81818 7.45769 9.45185 7.09131 9 7.09131Z" fill="#2AB7F3"/>
<path d="M9 3.81885C8.78454 3.81885 8.57394 3.90612 8.42127 4.0583C8.26909 4.21048 8.18182 4.42157 8.18182 4.63703C8.18182 4.85248 8.26909 5.06303 8.42127 5.21576C8.57345 5.36794 8.78454 5.45521 9 5.45521C9.21545 5.45521 9.426 5.36794 9.57867 5.21576C9.73085 5.06303 9.81818 4.85248 9.81818 4.63703C9.81818 4.42157 9.73085 4.21048 9.57867 4.0583C9.426 3.90607 9.21545 3.81885 9 3.81885Z" fill="#2AB7F3"/>
</svg>
