<svg width="28" height="28" viewBox="0 0 28 28" fill="none" xmlns="http://www.w3.org/2000/svg">
<path d="M9.51562 13.125H3.60938C1.61913 13.125 0 11.5059 0 9.51562V3.60938C0 1.61913 1.61913 0 3.60938 0H9.51562C11.5059 0 13.125 1.61913 13.125 3.60938V9.51562C13.125 11.5059 11.5059 13.125 9.51562 13.125ZM3.60938 1.75C2.58409 1.75 1.75 2.58409 1.75 3.60938V9.51562C1.75 10.5409 2.58409 11.375 3.60938 11.375H9.51562C10.5409 11.375 11.375 10.5409 11.375 9.51562V3.60938C11.375 2.58409 10.5409 1.75 9.51562 1.75H3.60938Z" fill="#67869A"/>
<path d="M24.3906 13.125H18.4844C16.4941 13.125 14.875 11.5059 14.875 9.51562V3.60938C14.875 1.61913 16.4941 0 18.4844 0H24.3906C26.3809 0 28 1.61913 28 3.60938V9.51562C28 11.5059 26.3809 13.125 24.3906 13.125ZM18.4844 1.75C17.4591 1.75 16.625 2.58409 16.625 3.60938V9.51562C16.625 10.5409 17.4591 11.375 18.4844 11.375H24.3906C25.4159 11.375 26.25 10.5409 26.25 9.51562V3.60938C26.25 2.58409 25.4159 1.75 24.3906 1.75H18.4844Z" fill="#67869A"/>
<path d="M21.4375 28C17.8189 28 14.875 25.0561 14.875 21.4375C14.875 17.8189 17.8189 14.875 21.4375 14.875C25.0561 14.875 28 17.8189 28 21.4375C28 25.0561 25.0561 28 21.4375 28ZM21.4375 16.625C18.7839 16.625 16.625 18.7839 16.625 21.4375C16.625 24.0911 18.7839 26.25 21.4375 26.25C24.0911 26.25 26.25 24.0911 26.25 21.4375C26.25 18.7839 24.0911 16.625 21.4375 16.625Z" fill="#67869A"/>
<path d="M9.51562 28H3.60938C1.61913 28 0 26.3809 0 24.3906V18.4844C0 16.4941 1.61913 14.875 3.60938 14.875H9.51562C11.5059 14.875 13.125 16.4941 13.125 18.4844V24.3906C13.125 26.3809 11.5059 28 9.51562 28ZM3.60938 16.625C2.58409 16.625 1.75 17.4591 1.75 18.4844V24.3906C1.75 25.4159 2.58409 26.25 3.60938 26.25H9.51562C10.5409 26.25 11.375 25.4159 11.375 24.3906V18.4844C11.375 17.4591 10.5409 16.625 9.51562 16.625H3.60938Z" fill="#67869A"/>
</svg>
