<svg width="1786" height="704" viewBox="0 0 1786 704" fill="none" xmlns="http://www.w3.org/2000/svg">
<path fill-rule="evenodd" clip-rule="evenodd" d="M1657.41 8.6446C1589.54 14.6795 1522.03 21.8562 1453.45 25.4445C1384.51 28.8697 1317.71 27.4017 1249.84 21.2037C1175.19 14.3533 1100.53 4.73006 1023.74 4.73006C946.937 4.73006 870.854 10.2757 795.127 16.6368C722.616 22.6717 650.104 29.6852 576.164 30.1745C502.938 30.6639 431.855 25.4445 360.058 19.0834C286.832 12.5591 212.891 6.03491 137.879 6.68733C100.73 7.01354 63.9388 8.48149 28.576 14.5164C18.9316 16.1475 9.6444 17.9416 0 19.7358V542H1786V0C1742.78 1.63106 1699.91 4.89317 1657.41 8.6446Z" fill="#2AB7F3"/>
<path d="M1439.17 659.125C1640.09 723.479 1754.11 662.104 1786 623.372L1786 99.0002L5.28908e-05 99L7.0487e-06 623.372C41.4607 749.698 467.762 699.843 665.763 659.125C839.845 632.31 1238.24 594.77 1439.17 659.125Z" fill="#4FC9FF"/>
<path fill-rule="evenodd" clip-rule="evenodd" d="M1565.25 84.4821C1499.17 86.5109 1433.44 83.7444 1368.08 78.949C1298.06 73.9692 1228.41 66.7762 1157.69 64.7474C1021.59 60.6898 889.785 81.9 755.121 87.802C688.324 90.753 622.957 88.5397 556.875 82.0844C489.364 75.4447 423.282 66.0384 356.128 58.8454C287.546 51.4679 217.535 46.3037 147.524 48.5169C97.8728 49.9924 48.5792 54.6034 0 60.3209V614H1786V61.7964C1714.92 73.9692 1641.33 82.0844 1565.25 84.4821Z" fill="#4FC9FF"/>
<path fill-rule="evenodd" clip-rule="evenodd" d="M1567.75 146.374C1497.03 146.015 1427.73 139.003 1357.72 135.947C1286.99 132.71 1216.62 135.407 1146.25 140.621C1011.59 150.689 878.355 167.409 740.833 162.016C607.24 156.622 479.362 136.126 348.27 122.822C280.045 115.81 209.319 109.338 139.665 113.114C92.5148 115.81 46.436 121.743 0 126.418V614H1786V123.541C1717.77 137.744 1645.62 146.914 1567.75 146.374Z" fill="#2AB7F3"/>
<path fill-rule="evenodd" clip-rule="evenodd" d="M1437.95 192.499C1402.44 200.908 1366.69 208.966 1329.15 209.492C1311.17 209.667 1293.18 208.791 1275.42 206.338C1256.99 203.711 1238.78 199.857 1220.8 196.353C1200.34 192.323 1179.66 188.469 1158.53 187.593C1136.95 186.893 1115.59 187.769 1094.24 190.046C1052.65 194.426 1012.41 202.835 971.494 210.017C935.077 216.499 899.334 221.405 861.792 220.003C826.723 218.777 792.329 213.696 758.384 207.039C687.797 193.199 618.783 172.527 545.948 165.52C527.964 163.768 509.755 162.717 491.546 163.067C471.764 163.418 451.982 165.52 432.424 168.148C404.324 171.827 375.774 176.206 347 176.557V614H1471V184.09C1459.98 187.068 1448.97 189.871 1437.95 192.499Z" fill="#2AB7F3"/>
<path fill-rule="evenodd" clip-rule="evenodd" d="M1733.49 192.499C1677.05 200.908 1620.26 208.966 1560.61 209.492C1532.03 209.667 1503.45 208.791 1475.24 206.338C1445.95 203.711 1417.01 199.857 1388.44 196.353C1355.93 192.323 1323.07 188.469 1289.49 187.593C1255.2 186.893 1221.27 187.769 1187.33 190.046C1121.25 194.426 1057.31 202.835 992.302 210.017C934.435 216.499 877.64 221.405 817.988 220.003C762.265 218.777 707.613 213.696 653.676 207.039C541.515 193.199 431.855 172.527 316.122 165.52C287.546 163.768 258.613 162.717 229.68 163.067C198.246 163.418 166.812 165.52 135.736 168.148C91.086 171.827 45.7216 176.206 0 176.557V614H1786V184.09C1768.5 187.068 1750.99 189.871 1733.49 192.499Z" fill="#4FC9FF"/>
<path fill-rule="evenodd" clip-rule="evenodd" d="M1676.74 320.446C1616.9 318.694 1578.53 306.429 1519.74 302.447C1491.23 300.536 1445.82 297.35 1416.61 298.624C1315.23 299.58 1187.46 303.084 1142.75 304.836C1075.52 307.703 1008.29 312.004 941.408 316.464C878.752 320.605 815.744 324.587 752.032 325.384C686.912 326.18 623.2 322.676 559.488 316.782C495.424 310.889 431.712 303.403 366.944 298.624C302.528 293.687 237.408 291.457 171.936 294.165C119.84 296.235 68.096 300.217 16 302.447V614H1776V317.579C1743.62 319.968 1710.18 321.402 1676.74 320.446Z" fill="#0D8EC6"/>
<path fill-rule="evenodd" clip-rule="evenodd" d="M1685.27 320.446C1624.55 318.694 1585.61 306.429 1525.96 302.447C1497.03 300.536 1450.95 297.35 1421.3 298.624C1318.43 299.58 1188.76 303.084 1143.4 304.836C1075.17 307.703 1006.95 312.004 939.079 316.464C875.497 320.605 811.558 324.587 746.905 325.384C680.823 326.18 616.17 322.676 551.517 316.782C486.506 310.889 421.853 303.403 356.128 298.624C290.761 293.687 224.679 291.457 158.24 294.165C105.374 296.235 52.8656 300.217 0 302.447V614H1786V317.579C1753.14 319.968 1719.2 321.402 1685.27 320.446Z" fill="#2AB7F3"/>
<path fill-rule="evenodd" clip-rule="evenodd" d="M1484.88 393.461C1418.8 394.043 1354.5 387.937 1290.21 382.703C1256.63 379.941 1222.7 377.615 1188.4 377.034C1154.83 376.452 1120.89 377.034 1087.67 378.633C959.082 384.448 834.419 402.039 704.756 404.219C578.307 406.4 456.502 391.862 334.696 380.377C272.544 374.562 209.319 369.474 145.38 368.166C96.444 367.148 48.5792 371.073 0 373.108V614H1786V390.99C1689.2 405.382 1587.4 392.734 1484.88 393.461Z" fill="#4FC9FF"/>
</svg>
