<svg width="19" height="19" viewBox="0 0 19 19" fill="none" xmlns="http://www.w3.org/2000/svg">
<path d="M18.4829 13.9441L15.8314 11.2926C14.8844 10.3456 13.2745 10.7244 12.8958 11.9555C12.6117 12.8078 11.6647 13.2812 10.8124 13.0918C8.9185 12.6183 6.36169 10.1562 5.88821 8.16759C5.60412 7.31528 6.1723 6.36831 7.02457 6.08426C8.25562 5.70547 8.63441 4.09563 7.68745 3.14866L5.03594 0.497158C4.27836 -0.165719 3.142 -0.165719 2.47913 0.497158L0.679891 2.29639C-1.11935 4.19033 0.869285 9.20925 5.32003 13.66C9.77077 18.1107 14.7897 20.1941 16.6836 18.3001L18.4829 16.5009C19.1458 15.7433 19.1458 14.607 18.4829 13.9441Z" fill="#DBC740"/>
</svg>
