<svg width="411" height="233" viewBox="0 0 411 233" fill="none" xmlns="http://www.w3.org/2000/svg">
<path fill-rule="evenodd" clip-rule="evenodd" d="M408.846 80.0332C410.666 83.2924 410.666 83.758 408.618 86.5516C402.473 94.234 396.555 101.684 390.41 109.366C383.582 117.98 376.982 126.826 370.154 135.44C364.919 142.191 359.229 148.476 353.766 154.995C350.125 159.418 346.711 164.074 343.069 168.497C337.607 175.248 331.689 181.767 326.227 188.518C323.04 192.475 320.082 196.899 316.895 200.856C311.66 207.607 306.198 214.359 300.736 221.11C297.777 224.602 294.363 227.861 291.176 231.12C290.721 231.586 289.811 232.051 288.9 232.051C279.341 232.284 269.782 232.284 260.223 232.284C249.526 232.284 238.601 231.819 227.904 231.586C215.158 231.353 202.185 231.353 189.439 231.12C182.384 231.12 175.1 230.887 168.045 230.887C158.258 230.887 148.699 230.887 138.912 230.887C128.215 230.887 117.518 231.12 106.593 231.12C104.772 231.12 102.951 231.12 102.951 228.094C102.951 227.163 101.813 226.231 101.358 225.3C95.4404 217.618 89.5228 209.703 83.3776 202.02C80.6464 198.528 77.4599 195.269 74.9563 191.777C69.9491 184.793 65.3971 177.576 60.1623 170.825C51.2859 159.185 41.9543 147.778 32.8503 136.138C25.7947 127.059 18.5115 117.98 11.4559 108.668C8.04193 104.244 5.0831 99.5884 1.8967 95.1652C0.531097 93.07 0.531097 91.2076 1.8967 90.2764C2.3519 90.0436 3.03473 89.8108 3.48993 89.8108C5.53833 90.9748 7.35914 90.0436 9.40754 89.8108C16.4631 89.1124 23.7463 88.8796 30.8019 88.1812C37.1747 87.7156 43.32 86.7844 49.4652 86.3188C57.2036 85.6204 64.9419 85.3876 72.4527 84.922C82.4671 84.2236 92.2539 83.0596 102.268 82.3612C110.007 81.8956 117.973 81.43 125.711 81.1972C130.263 80.9644 134.588 80.9644 139.14 80.7316C140.05 80.7316 141.188 80.7316 142.098 80.7316C145.74 81.1972 146.65 78.1708 148.016 76.0756C153.023 68.1605 157.803 60.2453 162.582 52.3301C166.907 45.1133 170.776 37.8965 175.328 30.6797C177.832 26.4893 180.79 22.7645 183.522 18.807C186.48 14.6166 189.212 10.4262 192.17 6.46857C193.764 4.37337 195.584 2.74378 197.633 1.34699C199.681 -0.28261 201.957 0.648585 203.55 2.74378C207.647 8.09817 212.199 13.2198 216.296 18.3414C219.255 21.8333 221.758 25.7909 224.49 29.5157C225.628 31.1453 227.221 32.5421 228.586 34.4045C233.821 41.6213 238.828 48.8381 244.063 55.8221C247.022 60.0125 250.208 63.9701 253.167 67.9277C255.216 70.7212 257.264 73.7476 259.312 76.5412C259.995 77.4724 260.906 78.6364 261.816 79.3348C262.499 79.8004 263.182 80.266 263.864 80.266C274.334 80.7316 284.576 80.9644 295.046 81.1972C304.15 81.43 313.254 81.8956 322.358 81.6628C336.014 81.1972 349.67 80.266 363.326 79.8004C369.471 79.5676 375.388 79.5676 381.534 79.5676C389.5 79.5676 397.693 79.3348 405.659 79.3348C407.48 80.266 408.163 80.0332 408.846 80.0332ZM404.521 85.1548C403.838 84.922 403.611 84.922 403.383 84.922C393.596 87.25 384.037 89.8108 374.25 92.1388C367.422 93.7684 360.594 95.1652 353.766 96.7948C346.483 98.4244 339.2 100.054 331.917 101.684C325.089 103.08 318.033 104.477 311.205 105.874C303.239 107.504 295.046 108.9 287.08 110.763C278.658 112.625 270.237 114.72 261.816 116.816C246.567 120.54 231.545 124.032 216.296 127.757C215.158 127.99 213.337 127.757 212.654 128.688C211.289 130.318 209.923 129.852 208.33 129.852C193.536 127.757 178.742 125.662 163.948 123.334C157.803 122.403 151.43 121.472 145.285 120.54C137.319 119.376 129.353 118.445 121.614 117.281C117.062 116.583 112.738 115.419 108.414 114.488C100.448 113.091 92.254 111.927 84.288 110.763C77.46 109.599 70.632 108.435 63.8039 107.271C55.8379 105.874 48.0996 104.012 40.3612 102.615C32.3952 101.218 24.6567 99.8212 16.6907 98.4244C13.9595 97.9588 11.4559 97.2604 8.26954 96.562C8.72474 97.4932 8.95234 98.1916 9.40754 98.6572C14.8699 106.107 20.3323 113.556 25.7947 120.773C33.9883 131.249 42.182 141.492 50.3756 151.968C54.7 157.555 59.2519 162.91 63.3487 168.497C68.1283 175.015 72.6803 181.534 77.2323 188.052C78.5979 190.147 79.9635 192.243 81.5567 194.105C84.2879 197.597 87.2468 200.856 89.978 204.348C93.1644 208.539 96.1232 212.962 99.5372 217.152C102.041 220.411 104.544 223.438 107.276 226.697C107.731 227.163 108.641 227.861 109.324 227.861C114.104 227.861 118.883 228.094 123.663 227.861C137.319 227.628 150.747 227.395 164.403 227.395C173.28 227.395 182.384 227.628 191.26 227.628C202.868 227.628 214.703 227.628 226.31 227.861C237.463 228.094 248.615 228.559 259.768 228.559C269.099 228.792 278.203 228.792 287.535 228.792C288.445 228.792 289.583 228.327 290.038 227.628C294.59 222.041 299.37 216.454 303.694 210.867C311.205 201.555 318.716 192.01 326.227 182.465C333.282 173.619 340.11 164.772 347.166 156.159C354.904 146.614 363.098 137.069 370.836 127.292C379.485 116.583 388.134 105.641 396.555 94.6996C399.514 91.4404 401.79 88.414 404.521 85.1548ZM278.658 108.202C275.927 104.477 273.196 100.985 270.692 97.726C262.954 87.25 255.216 77.0068 247.477 66.5309C240.194 56.5205 232.911 46.5101 225.4 36.4997C219.71 28.8173 213.565 21.6005 207.647 14.151C205.826 11.823 204.006 9.72777 202.412 7.39977C200.819 5.30458 200.364 5.30458 198.771 7.16698C197.178 9.02937 195.812 10.8918 194.446 12.7542C188.529 21.8333 181.246 30.2141 176.011 39.7589C173.28 44.8805 169.866 50.0021 166.907 55.1237C164.403 59.5469 161.9 64.2029 159.168 68.6261C155.527 74.2132 151.885 79.8004 148.244 85.3876C143.236 93.5356 138.457 101.684 133.45 109.832C132.767 110.763 132.312 111.927 131.856 113.324C134.588 113.789 136.864 114.488 139.14 114.72C149.609 116.35 160.079 117.98 170.548 119.609C181.473 121.239 192.398 123.101 203.323 124.731C206.282 125.196 209.24 125.895 212.199 125.196C219.027 123.8 225.628 121.937 232.228 120.075C237.918 118.678 243.38 117.281 249.07 115.884C257.492 113.789 266.14 111.694 274.562 109.599C275.927 109.366 277.293 108.9 278.658 108.202ZM136.864 95.6308C115.242 95.8636 93.8472 95.8636 72.2252 96.0964C72.2252 95.8636 72.2252 95.6308 71.9976 95.398C72.6804 95.1652 73.3632 94.6996 74.046 94.6996C84.9708 93.07 96.1232 92.8372 107.048 93.07C116.835 93.07 126.622 93.5356 136.408 91.6732C137.319 91.4404 138.229 91.906 139.367 92.1388C140.505 90.5092 141.643 88.6468 143.009 86.3188C101.813 87.25 61.528 91.4404 21.0152 94.234C21.698 94.4668 22.1531 94.6996 22.8359 94.9324C26.0223 95.6308 29.2088 96.0964 32.3952 96.7948C46.9616 99.5884 61.7555 102.382 76.322 104.943C86.1088 106.572 95.6679 107.969 105.455 109.366C112.283 110.53 119.111 111.694 125.939 113.091C127.304 113.324 127.987 113.091 127.987 111.461C127.987 110.064 127.76 109.133 126.166 109.366C125.484 109.366 124.801 109.133 124.118 108.9C125.256 107.969 126.394 107.038 127.532 107.038C130.718 107.271 131.401 104.943 132.994 102.615C131.856 102.615 131.174 102.615 130.263 102.615C126.849 102.615 123.663 102.848 120.249 102.848C117.518 102.848 114.786 102.615 112.055 102.615C107.958 102.848 103.634 103.546 99.5372 103.779C98.6268 103.779 97.7164 103.313 96.806 103.08C96.806 102.848 96.806 102.382 96.806 102.149C97.7164 101.916 98.6268 101.451 99.5372 101.218C104.089 100.752 108.641 100.054 113.193 99.8212C119.794 99.3556 126.166 99.3556 132.767 99.1228C135.726 99.1228 136.636 98.1916 136.864 95.6308ZM384.948 85.1548C384.948 85.1548 384.948 84.922 384.948 85.1548C380.396 84.922 376.071 84.6892 371.519 84.6892C365.374 84.922 359.456 85.1548 353.311 85.6204C348.759 85.8532 344.435 86.5516 339.883 86.7844C328.275 87.0172 316.668 87.25 305.06 87.25C298.687 87.25 292.314 86.5516 286.169 86.5516C280.479 86.3188 274.562 86.3188 268.872 86.3188C268.644 86.3188 268.416 86.5516 268.189 86.5516C268.872 89.1124 271.375 91.4404 273.196 91.4404C275.7 91.4404 278.203 91.2076 280.707 91.2076C286.624 91.4404 292.542 91.4404 298.46 91.906C299.142 91.906 299.825 92.6044 300.508 93.07C300.508 93.3028 300.28 93.5356 300.28 93.7684C291.632 94.0012 282.983 94.234 274.106 94.4668C275.472 96.3292 275.927 98.1916 278.431 97.9588C281.39 97.726 284.348 98.1916 287.307 98.4244C288.218 98.4244 289.128 98.6572 290.038 98.89C290.038 99.1228 290.038 99.3556 290.038 99.8212C286.624 100.985 282.755 100.287 279.114 100.985C280.479 103.08 281.845 105.176 283.21 107.038C283.438 107.271 284.121 107.271 284.804 107.271C289.128 106.34 293.68 105.176 298.004 104.244C311.888 101.451 325.772 98.6572 339.655 95.8636C350.352 93.5356 361.05 91.2076 371.519 88.8796C375.616 87.7156 380.396 86.3188 384.948 85.1548Z" fill="black"/>
<path fill-rule="evenodd" clip-rule="evenodd" d="M404.521 85.1548C402.018 88.414 399.742 91.4404 397.466 94.234C388.817 105.176 380.396 115.884 371.747 126.826C364.008 136.371 355.815 145.915 348.076 155.693C341.021 164.539 333.965 173.386 327.137 181.999C319.626 191.544 312.116 200.856 304.605 210.401C300.053 215.988 295.501 221.575 290.949 227.163C290.494 227.861 289.356 228.327 288.445 228.327C279.114 228.327 270.01 228.327 260.678 228.094C249.526 227.861 238.373 227.395 227.221 227.395C215.613 227.163 203.778 227.163 192.17 227.163C183.294 227.163 174.19 226.93 165.314 226.93C151.658 226.93 138.229 227.163 124.573 227.395C119.794 227.395 115.014 227.395 110.234 227.395C109.552 227.395 108.641 226.93 108.186 226.231C105.682 223.205 102.951 219.946 100.448 216.687C97.2612 212.496 94.3024 208.073 90.8884 203.883C88.1572 200.391 85.1984 197.131 82.4672 193.639C80.874 191.777 79.5084 189.682 78.1428 187.587C73.5908 181.068 69.0388 174.317 64.2592 168.031C60.1624 162.444 55.6104 157.09 51.286 151.503C43.0924 141.027 34.6712 130.784 26.7052 120.308C21.0152 113.091 15.7804 105.641 10.318 98.1916C10.0904 97.726 9.86279 97.2604 9.17999 96.0964C12.3664 96.7948 14.87 97.4932 17.6012 97.9588C25.5672 99.3556 33.3056 100.752 41.2716 102.149C49.2376 103.546 56.976 105.408 64.7144 106.805C71.5424 108.202 78.3704 109.366 85.1984 110.297C93.1644 111.694 101.358 112.858 109.324 114.022C113.876 114.72 118.2 116.117 122.525 116.816C130.491 117.98 138.457 118.911 146.195 120.075C152.34 121.006 158.713 121.937 164.858 122.868C179.652 124.964 194.446 127.292 209.24 129.387C210.606 129.62 212.199 129.852 213.565 128.223C214.248 127.524 215.841 127.524 217.206 127.292C232.456 123.8 247.477 120.075 262.726 116.35C271.148 114.255 279.569 112.16 287.99 110.297C295.956 108.435 304.15 107.038 312.116 105.408C318.944 104.012 325.999 102.615 332.827 101.218C340.11 99.5884 347.394 97.9588 354.677 96.3292C361.505 94.6996 368.333 93.3028 375.161 91.6732C384.948 89.3452 394.507 86.7844 404.294 84.4564C403.383 84.922 403.611 85.1548 404.521 85.1548Z" fill="white"/>
<path fill-rule="evenodd" clip-rule="evenodd" d="M278.658 108.202C277.065 108.668 275.927 109.133 274.789 109.599C266.368 111.694 257.719 113.789 249.298 115.884C243.608 117.281 238.146 118.678 232.456 120.075C225.855 121.704 219.027 123.799 212.427 125.196C209.696 125.662 206.509 125.196 203.55 124.731C192.626 123.101 181.701 121.239 170.776 119.609C160.306 117.979 149.837 116.35 139.367 114.72C137.091 114.255 134.588 113.789 132.084 113.324C132.767 111.927 133.222 110.763 133.677 109.832C138.684 101.684 143.464 93.5356 148.471 85.3876C151.885 79.8004 155.754 74.2132 159.396 68.626C162.127 64.2028 164.403 59.5468 167.134 55.1236C170.093 50.002 173.507 45.1133 176.238 39.7589C181.473 29.9813 188.756 21.8333 194.674 12.7541C196.04 10.8917 197.405 8.79654 198.998 7.16694C200.592 5.30455 201.047 5.53734 202.64 7.39974C204.461 9.72774 206.054 11.8229 207.875 14.1509C213.792 21.6005 219.938 28.8173 225.628 36.4997C233.138 46.2773 240.194 56.5204 247.705 66.5308C255.443 77.0068 263.182 87.25 270.92 97.726C273.196 101.218 275.927 104.477 278.658 108.202Z" fill="white"/>
<path fill-rule="evenodd" clip-rule="evenodd" d="M136.864 95.6308C136.636 98.1916 135.726 99.1228 133.222 99.1228C126.622 99.3556 120.021 99.5884 113.648 99.8212C109.096 100.054 104.544 100.52 99.9924 101.218C99.082 101.218 98.1716 101.684 97.2612 102.149C97.2612 102.382 97.2612 102.615 97.2612 103.08C98.1716 103.313 99.082 103.779 99.9924 103.779C104.089 103.546 108.414 102.848 112.51 102.615C115.242 102.382 117.973 102.848 120.704 102.848C124.118 102.848 127.304 102.848 130.718 102.615C131.401 102.615 132.312 102.615 133.45 102.615C131.856 104.943 131.174 107.271 127.987 107.038C126.849 107.038 125.711 107.969 124.573 108.9C125.256 109.133 125.939 109.366 126.622 109.366C128.215 109.366 128.442 110.064 128.442 111.461C128.442 112.858 127.76 113.324 126.394 113.091C119.566 111.927 112.738 110.53 105.91 109.366C96.1232 107.736 86.3364 106.572 76.7772 104.943C61.9832 102.382 47.4167 99.3556 32.8503 96.7948C29.6639 96.0964 26.4776 95.6308 23.2912 94.9324C22.6084 94.6996 21.9255 94.6996 21.4703 94.234C61.9831 91.4404 102.268 87.25 143.464 86.3188C142.098 88.6468 140.96 90.5092 139.822 92.1388C138.684 91.906 137.774 91.4404 136.864 91.6732C127.077 93.5356 117.29 93.07 107.503 93.07C96.3508 93.07 85.426 93.3028 74.5012 94.6996C73.8184 94.6996 73.1355 95.1652 72.4527 95.398C72.4527 95.6308 72.4528 95.8636 72.6804 96.0964C93.8472 96.0964 115.242 95.8636 136.864 95.6308Z" fill="#E5E5E5"/>
<path fill-rule="evenodd" clip-rule="evenodd" d="M384.948 85.1548C380.168 86.3188 375.616 87.7156 370.836 88.8796C360.139 91.2076 349.67 93.7684 338.972 95.8636C325.089 98.6572 311.205 101.451 297.322 104.244C292.997 105.176 288.445 106.34 284.121 107.271C283.666 107.271 282.755 107.271 282.528 107.038C281.162 105.176 280.024 103.08 278.431 100.985C282.072 100.287 285.942 101.218 289.356 99.8212C289.356 99.5884 289.356 99.3556 289.356 98.89C288.445 98.6572 287.535 98.4244 286.624 98.4244C283.666 98.1916 280.707 97.726 277.748 97.9588C275.244 97.9588 274.789 96.3292 273.424 94.4668C282.3 94.234 290.949 94.0012 299.598 93.7684C299.598 93.5356 299.825 93.3028 299.825 93.07C299.142 92.6044 298.46 91.906 297.777 91.906C291.859 91.6732 285.942 91.4404 280.024 91.2076C277.52 91.2076 275.017 91.2076 272.513 91.4404C270.692 91.4404 268.189 89.1124 267.506 86.5516C267.734 86.5516 267.961 86.3188 268.189 86.3188C273.879 86.3188 279.796 86.3188 285.486 86.5516C291.859 86.7844 298.232 87.25 304.377 87.25C315.985 87.25 327.592 87.0172 339.2 86.7844C343.752 86.5516 348.076 86.086 352.628 85.6204C358.774 85.1548 364.691 84.922 370.836 84.6892C376.071 84.6892 380.623 84.922 384.948 85.1548C384.948 84.922 384.948 85.1548 384.948 85.1548Z" fill="#E5E5E5"/>
</svg>
