<svg width="31" height="31" viewBox="0 0 31 31"  xmlns="http://www.w3.org/2000/svg">
<path d="M14.9057 1.8307C14.0738 1.83547 13.2394 1.88552 12.398 1.98802C10.789 2.18587 9.19425 2.51483 7.66389 3.21803C5.2301 4.336 3.50427 6.23346 3.00369 8.99144C2.79153 10.1547 2.61991 11.3347 2.52217 12.5218C2.33386 14.8268 2.45066 17.139 3.1038 19.4107C3.61869 21.2009 4.56742 22.81 6.22888 23.854C6.93208 24.295 7.85936 24.5096 8.34326 24.7336C8.47913 24.798 8.5125 24.8361 8.51965 24.8457C8.5268 24.8528 8.54587 24.8695 8.54349 25.0125C8.5268 26.4714 8.54349 29.2937 8.54349 29.2937L8.54587 29.9016H9.63524L9.81164 29.7299C9.81164 29.7299 12.5792 27.0673 13.5803 25.9708C13.7615 25.7753 13.8545 25.6657 13.8735 25.6537C13.8902 25.6418 13.8616 25.6347 14.0475 25.6299C15.361 25.6037 16.672 25.5536 17.9831 25.4821C19.7113 25.3868 21.4729 25.2223 23.1677 24.5143C24.6432 23.8969 25.8756 22.8886 26.6217 21.3773C27.3845 19.8279 27.7922 18.1855 27.9447 16.4859C28.1974 13.6564 28.1092 10.8221 27.3273 8.02841C26.8673 6.39078 25.9424 5.00583 24.5241 4.0285C22.8268 2.86047 20.9127 2.42186 19.0391 2.14297C17.9449 1.98087 16.8437 1.87361 15.7376 1.84023C15.4611 1.83308 15.1846 1.82831 14.9057 1.8307ZM15.7042 3.06071C16.7555 3.08931 17.8067 3.19181 18.8603 3.34914C20.6672 3.6185 22.3715 4.0285 23.8328 5.03444C25.0175 5.84968 25.7564 6.95096 26.1521 8.35498C26.8816 10.9676 26.9745 13.6445 26.729 16.3786C26.5884 17.9543 26.2141 19.4394 25.5252 20.8386C24.9174 22.0734 23.9686 22.8576 22.6957 23.3892C21.2178 24.0066 19.6112 24.1711 17.9187 24.264C16.622 24.3355 15.3228 24.3832 14.0237 24.4094C13.6971 24.4166 13.3777 24.5024 13.1513 24.6693C12.9248 24.8361 12.8223 24.9911 12.6817 25.1436C11.9665 25.9255 10.5411 27.3009 9.76396 28.0542C9.75919 27.1436 9.75204 26.0423 9.76396 25.0268C9.76873 24.7146 9.69722 24.3951 9.51844 24.1425C9.33966 23.8898 9.09413 23.7372 8.85814 23.6276C8.16924 23.3082 7.26819 23.065 6.87726 22.8195C5.51138 21.9613 4.73666 20.6741 4.2766 19.0723C3.67352 16.977 3.5591 14.8197 3.73788 12.6243C3.83323 11.4848 3.99771 10.343 4.20509 9.21074C4.63893 6.82462 6.00243 5.32287 8.17163 4.32647C9.54228 3.69716 11.0059 3.38728 12.5482 3.19896C13.5994 3.07024 14.6506 3.02972 15.7042 3.06071ZM15.9617 6.10235C15.4587 6.10235 14.97 6.15956 14.4957 6.26445C14.1691 6.34072 13.9617 6.6673 14.0356 6.99625C14.1095 7.32521 14.4385 7.53021 14.7674 7.45631C15.1512 7.36811 15.5517 7.32282 15.9617 7.32282C18.9413 7.32282 21.3442 9.72563 21.3442 12.7029C21.3442 13.1153 21.2989 13.5158 21.2107 13.9019C21.1368 14.2285 21.3418 14.5575 21.6707 14.6314C21.9997 14.7053 22.3263 14.4979 22.4001 14.1689C22.5074 13.6969 22.5646 13.2083 22.5646 12.7029C22.5646 9.06533 19.6016 6.10235 15.9617 6.10235ZM9.87361 7.32521C9.7735 7.32044 9.671 7.32759 9.56373 7.35143C8.45529 7.59695 7.35401 8.40027 7.32302 9.83528C7.35401 10.0355 7.35162 10.2501 7.42552 10.4312C7.78785 11.318 8.1025 12.2333 8.55541 13.0724C10.7604 17.1486 14.0952 19.9828 18.3454 21.7826C18.8531 21.9971 19.3776 22.0424 19.8901 21.8279C20.5957 21.5347 21.194 21.0817 21.5921 20.431C22.1379 19.5371 22.1451 18.9173 21.2464 18.257C20.6576 17.8232 20.0784 17.3774 19.4825 16.9531C18.5743 16.3095 17.5922 16.1975 16.9152 17.3274C16.8794 17.3846 16.827 17.4322 16.7817 17.4799C16.4337 17.8494 16.007 17.94 15.5541 17.7541C13.8354 17.0461 12.5076 15.9043 11.7067 14.2047C11.2347 13.2059 11.3634 12.7053 12.2454 12.0402C12.3336 11.9759 12.4171 11.9067 12.4981 11.8329C12.8843 11.4801 12.9868 11.0605 12.7579 10.5862C12.2407 9.50394 11.5518 8.53853 10.6793 7.70661C10.4433 7.48253 10.174 7.34189 9.87361 7.32521ZM15.9521 7.93306C15.6828 7.93306 15.4158 7.95451 15.1536 7.9998C14.9319 8.02841 14.7436 8.1762 14.6625 8.38359C14.5815 8.59335 14.622 8.82934 14.765 9.00097C14.9104 9.17022 15.1393 9.24888 15.3586 9.20121C15.5493 9.17022 15.7495 9.15353 15.9521 9.15353C17.9354 9.15353 19.5277 10.7459 19.5277 12.7291C19.5277 12.9318 19.5111 13.132 19.4801 13.3227C19.4324 13.542 19.5111 13.7708 19.6803 13.9162C19.8519 14.0593 20.0879 14.0998 20.2977 14.0187C20.5051 13.9377 20.6529 13.7494 20.6815 13.5277C20.7268 13.2655 20.7482 12.9985 20.7482 12.7291C20.7482 10.088 18.5933 7.93306 15.9521 7.93306ZM15.8663 9.76377C15.647 9.76138 15.442 9.8758 15.33 10.0665C15.2203 10.2572 15.2203 10.4908 15.33 10.6815C15.442 10.8722 15.647 10.9866 15.8663 10.9842C16.8842 10.9842 17.697 11.7971 17.697 12.8149C17.6947 13.0343 17.8091 13.2393 17.9998 13.3513C18.1905 13.4609 18.4241 13.4609 18.6148 13.3513C18.8055 13.2393 18.9199 13.0343 18.9175 12.8149C18.9175 11.1368 17.5445 9.76377 15.8663 9.76377Z"/>
</svg>
