<svg width="32" height="31" viewBox="0 0 32 31" fill="none" xmlns="http://www.w3.org/2000/svg">
<path d="M16.248 1.22021C8.50404 1.22021 2.21257 7.51169 2.21257 15.2557C2.21257 17.7451 2.89511 20.0676 4.03374 22.0954L2.23561 28.5164C2.17681 28.7253 2.23402 28.9502 2.38499 29.1059C2.53596 29.2617 2.75845 29.3253 2.9698 29.2728L9.66413 27.6137C11.6315 28.6642 13.8635 29.2911 16.248 29.2911C23.992 29.2911 30.2834 22.9996 30.2834 15.2557C30.2834 7.51169 23.992 1.22021 16.248 1.22021ZM16.248 2.44069C23.3325 2.44069 29.063 8.17119 29.063 15.2557C29.063 22.3401 23.3325 28.0706 16.248 28.0706C13.9771 28.0706 11.8492 27.4787 10.0002 26.4433C9.86515 26.3678 9.70624 26.3472 9.55527 26.3837L3.69287 27.837L5.26455 22.2281C5.31063 22.0676 5.28838 21.8959 5.20416 21.7521C4.08062 19.8467 3.43304 17.6299 3.43304 15.2557C3.43304 8.17119 9.16354 2.44069 16.248 2.44069ZM11.1484 7.93281C10.7567 7.93281 10.1981 8.07822 9.73961 8.57325C9.46389 8.86962 8.31493 9.98918 8.31493 11.9566C8.31493 14.0082 9.73802 15.7777 9.90965 16.0057H9.91124V16.0065C9.89455 15.9851 10.129 16.3252 10.4428 16.7328C10.7559 17.1396 11.1937 17.6751 11.7443 18.2544C12.8448 19.4129 14.3919 20.7525 16.3124 21.5718C17.1967 21.9476 17.8944 22.1756 18.4236 22.3417C19.4025 22.6492 20.2948 22.6023 20.9654 22.5038C21.4668 22.4299 22.019 22.1883 22.5649 21.8427C23.1108 21.4979 23.6463 21.068 23.8823 20.4156C24.0508 19.9476 24.1366 19.5146 24.1684 19.1594C24.1835 18.9814 24.1858 18.8241 24.1739 18.6787C24.162 18.5333 24.1747 18.422 24.0396 18.1996C23.7552 17.7331 23.4334 17.7212 23.0981 17.5552C22.9113 17.4622 22.3798 17.2032 21.8474 16.9497C21.315 16.6954 20.855 16.4714 20.5713 16.3704C20.3917 16.3053 20.1724 16.2123 19.857 16.2489C19.5415 16.2846 19.2293 16.5119 19.0481 16.7812C18.8757 17.0363 18.1828 17.8539 17.9714 18.0947C17.9683 18.0931 17.9873 18.101 17.9039 18.0605C17.6425 17.931 17.3231 17.8206 16.8503 17.5711C16.3767 17.3223 15.7856 16.9537 15.1388 16.3832V16.3816C14.1749 15.5338 13.5003 14.469 13.2874 14.1115C13.3017 14.0948 13.2858 14.1154 13.316 14.0852L13.3176 14.0836C13.5345 13.8699 13.7276 13.6141 13.8905 13.4257C14.1217 13.1603 14.2234 12.9252 14.3339 12.7058C14.554 12.2696 14.4316 11.7889 14.3045 11.5354V11.5346C14.3132 11.5521 14.2353 11.3805 14.1519 11.1826C14.0677 10.9848 13.9604 10.7273 13.8468 10.4532C13.6179 9.90575 13.3629 9.29075 13.2111 8.93001V8.92922C13.0323 8.50491 12.7908 8.19979 12.4745 8.052C12.1583 7.90421 11.8794 7.94632 11.8683 7.94553H11.8667C11.641 7.9352 11.3939 7.93281 11.1484 7.93281ZM11.1484 9.15329C11.3836 9.15329 11.6156 9.15647 11.8095 9.16521C12.0097 9.17554 11.997 9.17633 11.9589 9.15805C11.9191 9.13978 11.9724 9.13422 12.086 9.40358C12.2346 9.75637 12.4912 10.373 12.7201 10.9236C12.8345 11.1985 12.9418 11.456 13.0276 11.6586C13.1134 11.8612 13.1595 11.974 13.2135 12.0821V12.0829L13.2151 12.0845C13.2675 12.1886 13.2628 12.1218 13.2445 12.1584C13.1158 12.4134 13.0983 12.4762 12.968 12.6264C12.7693 12.8552 12.5675 13.1095 12.4602 13.2152C12.3665 13.3073 12.1972 13.4504 12.0924 13.7316C11.9859 14.0121 12.0359 14.3983 12.2052 14.6859C12.4308 15.0689 13.1754 16.2807 14.3315 17.2985C15.0601 17.9405 15.7379 18.3656 16.2798 18.6517C16.8225 18.9369 17.2635 19.1038 17.362 19.1531C17.5972 19.2691 17.853 19.3596 18.151 19.3239C18.4498 19.2873 18.7064 19.107 18.8701 18.9218L18.8709 18.921C19.0894 18.6739 19.7362 17.935 20.0461 17.4797C20.0596 17.4844 20.0556 17.4805 20.1581 17.5178V17.5194H20.1597C20.2066 17.5361 20.797 17.7999 21.323 18.051C21.849 18.3013 22.3829 18.5619 22.5562 18.6477C22.8072 18.7717 22.9256 18.8527 22.9558 18.8527C22.9582 18.9067 22.9598 18.9647 22.9519 19.0529C22.9312 19.2977 22.8652 19.637 22.7341 20.0009C22.6698 20.1781 22.3353 20.5452 21.9125 20.8121C21.4906 21.0791 20.9765 21.2682 20.7866 21.296C20.2145 21.3803 19.5352 21.4113 18.7891 21.1769C18.2718 21.0148 17.6266 20.8042 16.7915 20.449C15.0975 19.726 13.6577 18.4967 12.6295 17.4145C12.1154 16.8726 11.703 16.3689 11.4098 15.9875C11.1174 15.6069 10.9903 15.409 10.883 15.2692L10.8822 15.2676C10.6931 15.0173 9.5354 13.4075 9.5354 11.9566C9.5354 10.4214 10.2481 9.81914 10.6343 9.40358C10.8369 9.18507 11.0586 9.15329 11.1476 9.15329H11.1484Z"/>
</svg>
