<svg width="23" height="23" viewBox="0 0 23 23" fill="none" xmlns="http://www.w3.org/2000/svg">
<circle cx="11.5" cy="11.5" r="11.5" transform="rotate(-90 11.5 11.5)" fill="#FBE550"/>
<g clip-path="url(#clip0_538_48)">
<path d="M11.7239 13.6108L15.4883 9.83598C15.6115 9.7123 15.6113 9.51206 15.4876 9.38859C15.364 9.26522 15.1636 9.26553 15.0403 9.38923L11.4999 12.9394L7.95958 9.3891C7.83621 9.26542 7.63598 9.2651 7.51229 9.38846C7.45028 9.45036 7.41928 9.53144 7.41928 9.61253C7.41928 9.69341 7.45008 9.77418 7.51165 9.83596L11.276 13.6108C11.3352 13.6704 11.4159 13.7038 11.4999 13.7038C11.5839 13.7038 11.6645 13.6703 11.7239 13.6108Z" fill="black"/>
</g>
<defs>
<clipPath id="clip0_538_48">
<rect width="8.16129" height="8.16129" fill="white" transform="translate(15.5807 7.41943) rotate(90)"/>
</clipPath>
</defs>
</svg>
